<svg xmlns="http://www.w3.org/2000/svg" viewBox="0 0 300 125"><defs><style>.cls-1{isolation:isolate;}.cls-2{fill:none;stroke:#414143;stroke-linecap:round;stroke-miterlimit:10;stroke-width:2px;}.cls-3,.cls-8{fill:#49dac2;}.cls-4{fill:#414143;}.cls-5{fill:#fbf8ee;}.cls-6,.cls-7{fill:#fcb041;}.cls-7,.cls-8{mix-blend-mode:multiply;}.cls-8{opacity:0.5;}</style></defs><g class="cls-1"><g id="TEXTS"><path class="cls-2" d="M72.56,10.91c17,0,19.87,27.88,19.87,27.88"/><path class="cls-3" d="M45.28,30V53.18a30.56,30.56,0,0,1,36.49,30c0,9-5.45,17.68-11.75,24.78h43.3a9.48,9.48,0,0,0,9.48-9.48V30Z"/><path class="cls-4" d="M105.86,30V98.48a9.48,9.48,0,0,0,9.48,9.48h8.26a9.48,9.48,0,0,0,9.48-9.48V30Z"/><path class="cls-5" d="M54.88,38.92a2.46,2.46,0,1,1-2.46-2.46A2.46,2.46,0,0,1,54.88,38.92Z"/><path class="cls-5" d="M85.85,38.92a2.46,2.46,0,1,1-2.45-2.46A2.45,2.45,0,0,1,85.85,38.92Z"/><path class="cls-5" d="M126,38.92a2.45,2.45,0,1,1-2.45-2.46A2.45,2.45,0,0,1,126,38.92Z"/><path class="cls-2" d="M83.4,38.79s3-27.88,20-27.88,19.87,27.88,19.87,27.88"/><path class="cls-2" d="M52.55,38.79s3-27.88,20-27.88"/><path class="cls-6" d="M50.78,59.08A23.44,23.44,0,0,0,27.33,82.53c0,16.55,23.45,31.56,23.45,31.56S74.23,98.81,74.23,82.53A23.44,23.44,0,0,0,50.78,59.08Zm0,36.31A15.28,15.28,0,1,1,66.07,80.11,15.28,15.28,0,0,1,50.78,95.39Z"/><path class="cls-7" d="M39.18,104.63a80.23,80.23,0,0,0,11.6,9.46S74.23,98.81,74.23,82.53a23.85,23.85,0,0,0-.39-4.26C74.92,92.06,57.12,109.13,39.18,104.63Z"/><path class="cls-8" d="M93.94,108C90.83,89.1,84.22,71,71.89,60.69a30.46,30.46,0,0,1,9.88,22.49c0,9-5.45,17.68-11.75,24.78Z"/><path class="cls-6" d="M50.78,91.26A11.15,11.15,0,1,1,61.93,80.11,11.15,11.15,0,0,1,50.78,91.26Z"/><path class="cls-4" d="M176.86,59.15A9.24,9.24,0,0,1,173,62.6a13.7,13.7,0,0,1-6.18,1.28,14.53,14.53,0,0,1-9-2.66A9.67,9.67,0,0,1,154,53.78h8.35a4.44,4.44,0,0,0,1.31,2.89,4,4,0,0,0,2.87,1.06,3.34,3.34,0,0,0,2.39-.83,2.88,2.88,0,0,0,.87-2.2,2.83,2.83,0,0,0-.8-2.07,6.29,6.29,0,0,0-2-1.35c-.79-.35-1.9-.78-3.3-1.27a39.78,39.78,0,0,1-5-2A9.26,9.26,0,0,1,155.28,45a8.45,8.45,0,0,1-1.4-5.07,8.56,8.56,0,0,1,1.47-5,9.25,9.25,0,0,1,4.06-3.23,14.82,14.82,0,0,1,6-1.13q5.41,0,8.61,2.57a9.82,9.82,0,0,1,3.6,7.07h-8.5a4.28,4.28,0,0,0-1.17-2.54,3.41,3.41,0,0,0-2.54-.95,3.28,3.28,0,0,0-2.23.74,2.69,2.69,0,0,0-.85,2.16,2.73,2.73,0,0,0,.76,2,5.89,5.89,0,0,0,1.9,1.31c.77.33,1.87.76,3.31,1.28a37.25,37.25,0,0,1,5.1,2.09,9.69,9.69,0,0,1,3.39,3,8.59,8.59,0,0,1,1.43,5.14A9,9,0,0,1,176.86,59.15Z"/><path class="cls-4" d="M205.79,40.6q2.6,2.94,2.59,8.08V63.56h-7.85v-14a5.68,5.68,0,0,0-1.35-4,4.74,4.74,0,0,0-3.61-1.44,4.92,4.92,0,0,0-3.79,1.51,6.15,6.15,0,0,0-1.4,4.32V63.56h-7.85v-34h7.85v13A8.49,8.49,0,0,1,193.67,39a9.69,9.69,0,0,1,5.12-1.33A8.87,8.87,0,0,1,205.79,40.6Z"/><path class="cls-4" d="M232.38,39.2a11.6,11.6,0,0,1,4.72,4.57,13.71,13.71,0,0,1,1.73,7,13.71,13.71,0,0,1-1.73,7,11.6,11.6,0,0,1-4.72,4.57,14.5,14.5,0,0,1-6.82,1.58,14.65,14.65,0,0,1-6.85-1.58A11.61,11.61,0,0,1,214,57.73a13.71,13.71,0,0,1-1.72-7,13.71,13.71,0,0,1,1.72-7,11.61,11.61,0,0,1,4.75-4.57,14.53,14.53,0,0,1,6.85-1.58A14.38,14.38,0,0,1,232.38,39.2ZM221.77,46a6.6,6.6,0,0,0-1.54,4.71,6.49,6.49,0,0,0,1.54,4.68A5,5,0,0,0,225.56,57a5,5,0,0,0,3.76-1.61,6.57,6.57,0,0,0,1.52-4.68A6.69,6.69,0,0,0,229.32,46a4.94,4.94,0,0,0-3.76-1.63A5,5,0,0,0,221.77,46Z"/><path class="cls-4" d="M264.56,39.2a10.83,10.83,0,0,1,3.95,4.55,15.71,15.71,0,0,1,1.45,7,15.77,15.77,0,0,1-1.45,7,10.83,10.83,0,0,1-3.95,4.57,10.38,10.38,0,0,1-5.67,1.58,9.25,9.25,0,0,1-5-1.33,7.71,7.71,0,0,1-3.07-3.63V75.78h-7.86V37.94h7.86v4.64A7.67,7.67,0,0,1,253.84,39a9.25,9.25,0,0,1,5-1.33A10.3,10.3,0,0,1,264.56,39.2Zm-12.26,7a6.41,6.41,0,0,0-1.58,4.57,6.4,6.4,0,0,0,1.58,4.54,5.77,5.77,0,0,0,8.13.05A6.45,6.45,0,0,0,262,50.75a6.45,6.45,0,0,0-1.54-4.59,5.29,5.29,0,0,0-4.06-1.66A5.36,5.36,0,0,0,252.3,46.18Z"/><path class="cls-6" d="M162.05,100.42h10.47v6H154.19V74h7.86Z"/><path class="cls-6" d="M195,82.08a11.6,11.6,0,0,1,4.73,4.56,15,15,0,0,1,0,14,11.62,11.62,0,0,1-4.73,4.57,15.46,15.46,0,0,1-13.66,0,11.57,11.57,0,0,1-4.76-4.57,15,15,0,0,1,0-14,11.55,11.55,0,0,1,4.76-4.56,15.46,15.46,0,0,1,13.66,0Zm-10.61,6.84a7.93,7.93,0,0,0,0,9.39,5.06,5.06,0,0,0,3.79,1.61,5,5,0,0,0,3.77-1.61,8.05,8.05,0,0,0,0-9.39,4.94,4.94,0,0,0-3.77-1.63A5,5,0,0,0,184.34,88.92Z"/><path class="cls-6" d="M225.37,83.22a12.19,12.19,0,0,1,4.23,7.51h-8.32a4.38,4.38,0,0,0-1.51-2.57,4.51,4.51,0,0,0-2.89-.92,4.21,4.21,0,0,0-3.4,1.63,7.35,7.35,0,0,0-1.33,4.75,7.36,7.36,0,0,0,1.33,4.76,4.21,4.21,0,0,0,3.4,1.63,4.51,4.51,0,0,0,2.89-.92,4.38,4.38,0,0,0,1.51-2.57h8.32a12.17,12.17,0,0,1-4.23,7.5,12.68,12.68,0,0,1-8.31,2.74,13.72,13.72,0,0,1-6.68-1.59,11.24,11.24,0,0,1-4.57-4.57,15.72,15.72,0,0,1,0-14,11.14,11.14,0,0,1,4.56-4.54,13.89,13.89,0,0,1,6.71-1.59A12.73,12.73,0,0,1,225.37,83.22Z"/><path class="cls-6" d="M248.47,81.82a8,8,0,0,1,3.12,3.63V80.81h7.81v25.63h-7.81V101.8a8,8,0,0,1-3.12,3.63,9.34,9.34,0,0,1-5.05,1.33,10.31,10.31,0,0,1-5.67-1.59,10.77,10.77,0,0,1-3.95-4.57,17.57,17.57,0,0,1,0-14,10.8,10.8,0,0,1,3.95-4.54,10.31,10.31,0,0,1,5.67-1.59A9.34,9.34,0,0,1,248.47,81.82ZM241.88,89a7.63,7.63,0,0,0,0,9.19,5.77,5.77,0,0,0,8.13,0,7.37,7.37,0,0,0,0-9.12,5.37,5.37,0,0,0-4.07-1.67A5.28,5.28,0,0,0,241.88,89Z"/><path class="cls-6" d="M272.67,72.46v34h-7.86v-34Z"/></g></g></svg>